<svg width="363" height="728" viewBox="0 0 363 728" fill="none" xmlns="http://www.w3.org/2000/svg">
<path d="M362.889 172.947H358.891V63.4019C358.891 55.0758 357.251 46.8313 354.064 39.139C350.878 31.4467 346.208 24.4573 340.32 18.5699C334.433 12.6825 327.444 8.01236 319.751 4.82613C312.059 1.63989 303.815 -2.49509e-05 295.488 2.84729e-10H63.402C55.0759 -1.83848e-05 46.8314 1.63991 39.1391 4.82615C31.4468 8.01239 24.4574 12.6825 18.57 18.5699C12.6826 24.4574 8.01242 31.4468 4.82617 39.139C1.63993 46.8313 -9.19253e-06 55.0759 0 63.4019V664.376C-6.56609e-06 672.702 1.63992 680.947 4.82617 688.639C8.01242 696.331 12.6826 703.321 18.57 709.208C24.4574 715.095 31.4468 719.766 39.1391 722.952C46.8314 726.138 55.0759 727.778 63.402 727.778H295.488C303.815 727.778 312.059 726.138 319.751 722.952C327.444 719.766 334.433 715.095 340.32 709.208C346.208 703.321 350.878 696.331 354.064 688.639C357.251 680.947 358.891 672.702 358.891 664.376V250.923H362.889V172.947Z" fill="#3F3D56"/>
<path d="M298.047 16.4951H267.752C269.145 19.9108 269.677 23.6166 269.3 27.2862C268.924 30.9558 267.651 34.4765 265.593 37.5382C263.536 40.5999 260.757 43.1086 257.501 44.8432C254.246 46.5779 250.613 47.4854 246.925 47.4857H113.965C110.276 47.4854 106.644 46.5779 103.389 44.8432C100.133 43.1086 97.3542 40.5999 95.2966 37.5382C93.239 34.4765 91.9659 30.9558 91.5895 27.2862C91.2131 23.6166 91.7449 19.9108 93.1381 16.4951H64.8425C58.6247 16.4951 52.4678 17.7198 46.7233 20.0992C40.9788 22.4787 35.7592 25.9663 31.3625 30.3629C26.9659 34.7596 23.4782 39.9791 21.0988 45.7236C18.7193 51.4681 17.4946 57.625 17.4946 63.8428V663.935C17.4946 670.153 18.7193 676.31 21.0988 682.055C23.4782 687.799 26.9658 693.019 31.3625 697.415C35.7592 701.812 40.9788 705.3 46.7233 707.679C52.4678 710.058 58.6247 711.283 64.8425 711.283H298.047C304.265 711.283 310.421 710.058 316.166 707.679C321.91 705.3 327.13 701.812 331.527 697.415C335.923 693.019 339.411 687.799 341.79 682.055C344.17 676.31 345.395 670.153 345.395 663.935V63.8428C345.395 51.2854 340.406 39.2423 331.527 30.3629C322.647 21.4835 310.604 16.4951 298.047 16.4951V16.4951Z" fill="white"/>
<path d="M304.445 110.234H58.4448V321.234H304.445V110.234Z" fill="#E6E6E6"/>
<path d="M131.445 365.234C141.386 365.234 149.445 357.175 149.445 347.234C149.445 337.293 141.386 329.234 131.445 329.234C121.504 329.234 113.445 337.293 113.445 347.234C113.445 357.175 121.504 365.234 131.445 365.234Z" fill="#6C63FF"/>
<path d="M140.445 345.734H132.945V338.234H129.945V345.734H122.445V348.734H129.945V356.234H132.945V348.734H140.445V345.734Z" fill="white"/>
<path d="M226.445 365.234C236.386 365.234 244.445 357.175 244.445 347.234C244.445 337.293 236.386 329.234 226.445 329.234C216.504 329.234 208.445 337.293 208.445 347.234C208.445 357.175 216.504 365.234 226.445 365.234Z" fill="#6C63FF"/>
<path d="M235.445 348.734V345.734H217.445V348.734H235.445Z" fill="white"/>
<path d="M190.62 136.549H171.179C170.496 136.549 169.84 136.82 169.357 137.303C168.874 137.787 168.602 138.442 168.602 139.126V147.659C168.602 148.342 168.874 148.998 169.357 149.481C169.84 149.965 170.496 150.236 171.179 150.236H174.401V163.021H187.398V150.236H190.62C191.303 150.236 191.959 149.965 192.442 149.481C192.925 148.998 193.197 148.342 193.197 147.659V139.126C193.197 138.442 192.925 137.787 192.442 137.303C191.959 136.82 191.303 136.549 190.62 136.549Z" fill="#6C63FF"/>
<path d="M210.091 214.642C198.185 197.22 192.099 176.478 192.703 155.385C192.714 154.899 192.556 154.423 192.256 154.04C191.956 153.656 191.533 153.388 191.058 153.282V149.595H170.527V153.231H170.244C169.967 153.231 169.693 153.286 169.438 153.392C169.182 153.498 168.95 153.654 168.755 153.849C168.559 154.045 168.405 154.278 168.299 154.534C168.193 154.789 168.139 155.063 168.14 155.34C168.14 155.391 168.142 155.442 168.145 155.493C169.763 178.041 164.301 198.261 151.76 216.154C151.038 217.182 150.669 218.417 150.709 219.672L152.954 289.117C153.008 290.666 153.658 292.134 154.769 293.215C155.879 294.296 157.364 294.907 158.914 294.919H205.353C206.921 294.906 208.421 294.282 209.535 293.179C210.649 292.076 211.289 290.582 211.317 289.014L212.182 221.589C212.208 219.115 211.478 216.691 210.091 214.642V214.642Z" fill="#3F3D56"/>
<path opacity="0.2" d="M186.567 139.329C186.567 140.804 185.981 142.218 184.938 143.261C183.896 144.304 182.481 144.889 181.006 144.889C179.532 144.889 178.117 144.304 177.074 143.261C176.032 142.218 175.446 140.804 175.446 139.329" fill="black"/>
<path d="M202.74 237.709H197.116C196.579 234.225 194.813 231.048 192.138 228.754C189.462 226.459 186.054 225.197 182.529 225.197C179.004 225.197 175.596 226.459 172.92 228.754C170.245 231.048 168.479 234.225 167.942 237.709H162.318C161.72 237.709 161.128 237.838 160.585 238.088C160.041 238.338 159.558 238.702 159.168 239.156C158.779 239.611 158.492 240.144 158.328 240.719C158.163 241.294 158.125 241.898 158.216 242.49L164.324 282.193H199.399L206.818 242.623C206.931 242.024 206.91 241.407 206.757 240.817C206.604 240.227 206.322 239.678 205.933 239.208C205.544 238.739 205.055 238.361 204.504 238.102C203.952 237.843 203.349 237.709 202.74 237.709V237.709Z" fill="#6C63FF"/>
<path d="M304.445 407.234H58.4448V618.234H304.445V407.234Z" fill="#E6E6E6"/>
<path d="M131.445 662.234C141.386 662.234 149.445 654.175 149.445 644.234C149.445 634.293 141.386 626.234 131.445 626.234C121.504 626.234 113.445 634.293 113.445 644.234C113.445 654.175 121.504 662.234 131.445 662.234Z" fill="#6C63FF"/>
<path d="M140.445 642.734H132.945V635.234H129.945V642.734H122.445V645.734H129.945V653.234H132.945V645.734H140.445V642.734Z" fill="white"/>
<path d="M226.445 662.234C236.386 662.234 244.445 654.175 244.445 644.234C244.445 634.293 236.386 626.234 226.445 626.234C216.504 626.234 208.445 634.293 208.445 644.234C208.445 654.175 216.504 662.234 226.445 662.234Z" fill="#6C63FF"/>
<path d="M235.445 645.734V642.734H217.445V645.734H235.445Z" fill="white"/>
<path d="M229.873 557.132L230.009 557.132C234.64 557.171 239.176 555.812 243.024 553.235C246.873 550.657 249.855 546.979 251.581 542.681C257.023 528.922 258.297 513.867 255.245 499.389C252.193 484.911 244.95 471.651 234.417 461.259C223.884 450.868 210.528 443.804 196.01 440.948C181.492 438.091 166.455 439.569 152.771 445.195C139.086 450.822 127.359 460.35 119.05 472.593C110.741 484.835 106.216 499.251 106.04 514.046C105.864 528.841 110.043 543.361 118.058 555.798C126.073 568.235 137.57 578.04 151.116 583.992C155.326 585.856 160.001 586.404 164.529 585.564C169.056 584.725 173.224 582.537 176.486 579.287C183.482 572.254 191.802 566.675 200.965 562.873C210.127 559.07 219.952 557.119 229.873 557.132V557.132Z" fill="white"/>
<path d="M191.13 534.301C204.885 534.301 216.036 523.15 216.036 509.395C216.036 495.64 204.885 484.489 191.13 484.489C177.375 484.489 166.224 495.64 166.224 509.395C166.224 523.15 177.375 534.301 191.13 534.301Z" fill="#F9A825"/>
</svg>
